<svg width="25" height="24" viewBox="0 0 25 24" fill="none" xmlns="http://www.w3.org/2000/svg">
<path fill-rule="evenodd" clip-rule="evenodd" d="M14.9482 1.59495C15.2495 1.76289 15.3973 2.11463 15.3066 2.44736L13.315 9.75003H20.583C20.8817 9.75003 21.1519 9.92721 21.2709 10.2011C21.3899 10.475 21.3351 10.7934 21.1313 11.0118L10.6313 22.2618C10.396 22.5139 10.0191 22.573 9.71781 22.4051C9.41658 22.2372 9.2687 21.8854 9.35945 21.5527L11.3511 14.25H4.08302C3.78438 14.25 3.51419 14.0728 3.39516 13.7989C3.27614 13.525 3.33096 13.2066 3.53473 12.9883L14.0347 1.73829C14.2701 1.48615 14.647 1.42701 14.9482 1.59495Z" fill="#262626"/>
</svg>
