<svg width="21" height="21" viewBox="0 0 21 21" fill="none" xmlns="http://www.w3.org/2000/svg">
<path d="M10.25 4.33694C10.25 3.98178 10.064 3.66076 9.8488 3.3782C9.62791 3.0881 9.5 2.744 9.5 2.375C9.5 1.33947 10.5074 0.5 11.75 0.5C12.9926 0.5 14 1.33947 14 2.375C14 2.744 13.8721 3.0881 13.6512 3.3782C13.436 3.66076 13.25 3.98178 13.25 4.33694C13.25 4.66929 13.5277 4.9346 13.8595 4.9148C15.7701 4.80079 17.6498 4.57328 19.4922 4.23898C19.6949 4.20219 19.9039 4.25044 20.07 4.37241C20.2361 4.49437 20.3447 4.6793 20.3703 4.88377C20.5943 6.67324 20.7213 8.49263 20.7459 10.3365C20.7508 10.7028 20.4533 10.9999 20.0869 11C19.7318 11 19.4108 10.814 19.1282 10.5988C18.8381 10.3779 18.494 10.25 18.125 10.25C17.0895 10.25 16.25 11.2574 16.25 12.5C16.25 13.7426 17.0895 14.75 18.125 14.75C18.494 14.75 18.8381 14.6221 19.1282 14.4012C19.4108 14.186 19.7318 14 20.0869 14C20.3974 14 20.6439 14.2617 20.6214 14.5713C20.5028 16.2098 20.3031 17.8261 20.0263 19.4161C19.9721 19.728 19.7279 19.9721 19.416 20.0264C17.5969 20.343 15.7434 20.5587 13.8615 20.6677C13.5285 20.6869 13.25 20.4205 13.25 20.0869C13.25 19.7318 13.436 19.4108 13.6512 19.1282C13.8721 18.8381 14 18.494 14 18.125C14 17.0895 12.9926 16.25 11.75 16.25C10.5074 16.25 9.5 17.0895 9.5 18.125C9.5 18.494 9.62791 18.8381 9.8488 19.1282C10.064 19.4108 10.25 19.7318 10.25 20.0869C10.25 20.4485 9.95396 20.7405 9.59252 20.7303C8.00303 20.6852 6.43238 20.564 4.88413 20.3702C4.67966 20.3446 4.49473 20.236 4.37277 20.0699C4.25081 19.9038 4.20256 19.6948 4.23935 19.4921C4.53223 17.8781 4.74315 16.2354 4.8676 14.5683C4.89058 14.2605 4.64563 14 4.33694 14C3.98178 14 3.66076 14.186 3.3782 14.4012C3.0881 14.6221 2.744 14.75 2.375 14.75C1.33947 14.75 0.5 13.7426 0.5 12.5C0.5 11.2574 1.33947 10.25 2.375 10.25C2.744 10.25 3.0881 10.3779 3.3782 10.5988C3.66076 10.814 3.98178 11 4.33694 11C4.7033 11 5.00078 10.703 4.99574 10.3367C4.97334 8.70845 4.86862 7.10026 4.68559 5.51628C4.6593 5.28881 4.73838 5.06178 4.9003 4.89986C5.06222 4.73794 5.28924 4.65886 5.51672 4.68515C6.85902 4.84025 8.2186 4.93912 9.59307 4.97931C9.95415 4.98987 10.25 4.69817 10.25 4.33694Z" fill="#262626"/>
</svg>
