<svg width="20" height="18" viewBox="0 0 20 18" fill="none" xmlns="http://www.w3.org/2000/svg">
<path d="M9.25 1.53286C7.73455 0.562791 5.93246 0 4 0C2.86178 0 1.76756 0.195355 0.750065 0.554987C0.450372 0.660914 0.25 0.944254 0.25 1.26212V15.5121C0.25 15.7556 0.368178 15.9839 0.566959 16.1245C0.76574 16.265 1.02039 16.3004 1.24993 16.2192C2.10911 15.9156 3.03441 15.75 4 15.75C5.99502 15.75 7.82325 16.4573 9.25 17.6357V1.53286Z" fill="#262626"/>
<path d="M10.75 17.6357C12.1768 16.4573 14.005 15.75 16 15.75C16.9656 15.75 17.8909 15.9156 18.7501 16.2192C18.9796 16.3004 19.2343 16.265 19.433 16.1245C19.6318 15.9839 19.75 15.7556 19.75 15.5121V1.26212C19.75 0.944254 19.5496 0.660914 19.2499 0.554987C18.2324 0.195355 17.1382 0 16 0C14.0675 0 12.2655 0.562791 10.75 1.53286V17.6357Z" fill="#262626"/>
</svg>
