<svg width="18" height="20" viewBox="0 0 18 20" fill="none" xmlns="http://www.w3.org/2000/svg">
<path d="M15.375 0.25C14.3395 0.25 13.5 1.08947 13.5 2.125V17.875C13.5 18.9105 14.3395 19.75 15.375 19.75H16.125C17.1605 19.75 18 18.9105 18 17.875V2.125C18 1.08947 17.1605 0.25 16.125 0.25H15.375Z" fill="#262626"/>
<path d="M6.75 6.625C6.75 5.58947 7.58947 4.75 8.625 4.75H9.375C10.4105 4.75 11.25 5.58947 11.25 6.625V17.875C11.25 18.9105 10.4105 19.75 9.375 19.75H8.625C7.58947 19.75 6.75 18.9105 6.75 17.875V6.625Z" fill="#262626"/>
<path d="M0 11.125C0 10.0895 0.839466 9.25 1.875 9.25H2.625C3.66053 9.25 4.5 10.0895 4.5 11.125V17.875C4.5 18.9105 3.66053 19.75 2.625 19.75H1.875C0.839466 19.75 0 18.9105 0 17.875V11.125Z" fill="#262626"/>
</svg>
