<svg width="12" height="10" viewBox="0 0 12 10" fill="none" xmlns="http://www.w3.org/2000/svg">
<path fill-rule="evenodd" clip-rule="evenodd" d="M12 5C12 5.49706 11.5971 5.9 11.1 5.9H3.1345L5.7238 8.25125C6.08209 8.59576 6.09326 9.1655 5.74875 9.5238C5.40424 9.88209 4.8345 9.89326 4.4762 9.54875L0.276202 5.64875C0.0997318 5.47906 -1.07012e-08 5.24481 0 5C1.07012e-08 4.75518 0.0997319 4.52093 0.276202 4.35125L4.4762 0.451248C4.8345 0.106734 5.40424 0.117906 5.74875 0.4762C6.09326 0.834495 6.08209 1.40423 5.7238 1.74875L3.1345 4.1L11.1 4.1C11.5971 4.1 12 4.50294 12 5Z" fill="#333333"/>
</svg>
