<svg width="20" height="20" viewBox="0 0 20 20" fill="none" xmlns="http://www.w3.org/2000/svg">
<path fill-rule="evenodd" clip-rule="evenodd" d="M17.449 6.44818L14.3878 8.99916C14.5374 9.65744 14.5374 10.3426 14.3878 11.0008L17.449 13.5518C18.517 11.3118 18.517 8.68824 17.449 6.44818ZM13.5518 17.449L11.0008 14.3878C10.3426 14.5374 9.65744 14.5374 8.99916 14.3878L6.44818 17.449C8.68824 18.517 11.3118 18.517 13.5518 17.449ZM2.55102 13.5518L5.6122 11.0008C5.4626 10.3426 5.4626 9.65744 5.6122 8.99916L2.55102 6.44818C1.48299 8.68824 1.48299 11.3118 2.55102 13.5518ZM6.44818 2.55102L8.99916 5.6122C9.65744 5.4626 10.3426 5.4626 11.0008 5.6122L13.5518 2.55102C11.3118 1.48299 8.68824 1.48299 6.44818 2.55102ZM15.1055 1.6912C15.7424 2.08325 16.3435 2.55493 16.8943 3.10571C17.4451 3.65649 17.9167 4.25755 18.3088 4.89448C20.2304 8.01631 20.2304 11.9837 18.3088 15.1055C17.9167 15.7424 17.4451 16.3435 16.8943 16.8943C16.3435 17.4451 15.7424 17.9167 15.1055 18.3088C11.9837 20.2304 8.01631 20.2304 4.89448 18.3088C4.25755 17.9167 3.65649 17.4451 3.10571 16.8943C2.55493 16.3435 2.08325 15.7424 1.6912 15.1055C-0.230399 11.9837 -0.2304 8.01631 1.6912 4.89448C2.08325 4.25755 2.55493 3.65649 3.10571 3.10571C3.65649 2.55493 4.25755 2.08325 4.89448 1.6912C8.01631 -0.230399 11.9837 -0.230399 15.1055 1.6912ZM12.1213 7.87868C11.7958 7.55313 11.4158 7.31907 11.0115 7.17471C10.359 6.94176 9.641 6.94176 8.98855 7.17471C8.58424 7.31907 8.20423 7.55313 7.87868 7.87868C7.55313 8.20423 7.31907 8.58423 7.17471 8.98855C6.94176 9.641 6.94176 10.359 7.17471 11.0114C7.31907 11.4158 7.55313 11.7958 7.87868 12.1213C8.20423 12.4469 8.58424 12.6809 8.98855 12.8253C9.641 13.0582 10.359 13.0582 11.0115 12.8253C11.4158 12.6809 11.7958 12.4469 12.1213 12.1213C12.4469 11.7958 12.6809 11.4158 12.8253 11.0115C13.0582 10.359 13.0582 9.641 12.8253 8.98855C12.6809 8.58423 12.4469 8.20423 12.1213 7.87868Z" fill="#262626"/>
</svg>
