<svg width="116" height="20" viewBox="0 0 116 20" fill="none" xmlns="http://www.w3.org/2000/svg">
<path d="M8.27465 2.9429C9.04734 1.62493 10.9527 1.62493 11.7253 2.9429L12.8023 4.7798C13.0843 5.26076 13.5542 5.6022 14.0988 5.72175L16.1785 6.17833C17.6708 6.50593 18.2596 8.31799 17.2449 9.46014L15.8307 11.052C15.4604 11.4688 15.2809 12.0212 15.3354 12.5761L15.5439 14.6952C15.6935 16.2156 14.152 17.3355 12.7522 16.7234L10.8013 15.8704C10.2904 15.647 9.70956 15.647 9.19873 15.8704L7.24777 16.7234C5.84797 17.3355 4.30654 16.2156 4.45611 14.6952L4.66456 12.5761C4.71914 12.0212 4.53963 11.4688 4.16934 11.052L2.75514 9.46014C1.74045 8.31799 2.32922 6.50593 3.82146 6.17833L5.90124 5.72175C6.4458 5.6022 6.91575 5.26076 7.19773 4.7798L8.27465 2.9429Z" fill="#FF8D4D"/>
<path d="M32.2747 2.9429C33.0473 1.62493 34.9527 1.62493 35.7253 2.9429L36.8023 4.7798C37.0843 5.26076 37.5542 5.6022 38.0988 5.72175L40.1785 6.17833C41.6708 6.50593 42.2596 8.31799 41.2449 9.46014L39.8307 11.052C39.4604 11.4688 39.2809 12.0212 39.3354 12.5761L39.5439 14.6952C39.6935 16.2156 38.152 17.3355 36.7522 16.7234L34.8013 15.8704C34.2904 15.647 33.7096 15.647 33.1987 15.8704L31.2478 16.7234C29.848 17.3355 28.3065 16.2156 28.4561 14.6952L28.6646 12.5761C28.7191 12.0212 28.5396 11.4688 28.1693 11.052L26.7551 9.46014C25.7405 8.31799 26.3292 6.50593 27.8215 6.17833L29.9012 5.72175C30.4458 5.6022 30.9157 5.26076 31.1977 4.7798L32.2747 2.9429Z" fill="#FF8D4D"/>
<path d="M56.2747 2.9429C57.0473 1.62493 58.9527 1.62493 59.7253 2.9429L60.8023 4.7798C61.0843 5.26076 61.5542 5.6022 62.0988 5.72175L64.1785 6.17833C65.6708 6.50593 66.2596 8.31799 65.2449 9.46014L63.8307 11.052C63.4604 11.4688 63.2809 12.0212 63.3354 12.5761L63.5439 14.6952C63.6935 16.2156 62.152 17.3355 60.7522 16.7234L58.8013 15.8704C58.2904 15.647 57.7096 15.647 57.1987 15.8704L55.2478 16.7234C53.848 17.3355 52.3065 16.2156 52.4561 14.6952L52.6646 12.5761C52.7191 12.0212 52.5396 11.4688 52.1693 11.052L50.7551 9.46014C49.7405 8.31799 50.3292 6.50593 51.8215 6.17833L53.9012 5.72175C54.4458 5.6022 54.9157 5.26076 55.1977 4.7798L56.2747 2.9429Z" fill="#FF8D4D"/>
<path d="M80.2747 2.9429C81.0473 1.62493 82.9527 1.62493 83.7253 2.9429L84.8023 4.7798C85.0843 5.26076 85.5542 5.6022 86.0988 5.72175L88.1785 6.17833C89.6708 6.50593 90.2596 8.31799 89.2449 9.46014L87.8307 11.052C87.4604 11.4688 87.2809 12.0212 87.3354 12.5761L87.5439 14.6952C87.6935 16.2156 86.152 17.3355 84.7522 16.7234L82.8013 15.8704C82.2904 15.647 81.7096 15.647 81.1987 15.8704L79.2478 16.7234C77.848 17.3355 76.3065 16.2156 76.4561 14.6952L76.6646 12.5761C76.7191 12.0212 76.5396 11.4688 76.1693 11.052L74.7551 9.46014C73.7405 8.31799 74.3292 6.50593 75.8215 6.17833L77.9012 5.72175C78.4458 5.6022 78.9157 5.26076 79.1977 4.7798L80.2747 2.9429Z" fill="#FF8D4D"/>
<path d="M104.275 2.9429C105.047 1.62493 106.953 1.62493 107.725 2.9429L108.802 4.7798C109.084 5.26076 109.554 5.6022 110.099 5.72175L112.179 6.17833C113.671 6.50593 114.26 8.31799 113.245 9.46014L111.831 11.052C111.46 11.4688 111.281 12.0212 111.335 12.5761L111.544 14.6952C111.693 16.2156 110.152 17.3355 108.752 16.7234L106.801 15.8704C106.29 15.647 105.71 15.647 105.199 15.8704L103.248 16.7234C101.848 17.3355 100.307 16.2156 100.456 14.6952L100.665 12.5761C100.719 12.0212 100.54 11.4688 100.169 11.052L98.7551 9.46014C97.7405 8.31799 98.3292 6.50593 99.8215 6.17833L101.901 5.72175C102.446 5.6022 102.916 5.26076 103.198 4.7798L104.275 2.9429Z" fill="#FF8D4D"/>
</svg>
