<svg width="24" height="24" viewBox="0 0 24 24" fill="none" xmlns="http://www.w3.org/2000/svg">
<path d="M4.57556 16.5964L4.83622 17.5839C5.16637 18.8678 5.88751 19.5262 7.32109 19.5262H16.6785C18.1208 19.5262 18.8332 18.8843 19.172 17.5839L19.4327 16.5964H4.57556ZM4.28885 15.4688H19.7281L21.3615 9.13186L20.6491 8.74506L16.6438 11.5103C16.3483 11.7078 16.1485 11.6337 15.9834 11.4115L12.2126 6.01274L11.7956 5.99628L7.9901 11.4362C7.8424 11.6502 7.66863 11.7161 7.37322 11.5185L3.44607 8.80266L2.61199 9.00841L4.28885 15.4688ZM2.93346 10.7778C4.08033 10.7778 5.00129 9.89724 5.00129 8.80266C5.00129 7.73278 4.08033 6.84395 2.93346 6.84395C1.78659 6.84395 0.856934 7.72455 0.856934 8.80266C0.856934 9.89724 1.79528 10.7778 2.93346 10.7778ZM12.0042 7.35421C13.1423 7.35421 14.072 6.47361 14.072 5.38727C14.072 4.31738 13.1423 3.42856 12.0042 3.42856C10.8486 3.42856 9.92763 4.30916 9.92763 5.38727C9.92763 6.47361 10.8573 7.35421 12.0042 7.35421ZM21.0661 10.7778C22.2043 10.7778 23.1426 9.89724 23.1426 8.80266C23.1426 7.72455 22.213 6.84395 21.0661 6.84395C19.928 6.84395 18.9983 7.73278 18.9983 8.80266C18.9983 9.89724 19.928 10.7778 21.0661 10.7778Z" fill="#262626"/>
</svg>
