<svg width="28" height="38" viewBox="0 0 28 38" fill="none" xmlns="http://www.w3.org/2000/svg">
<path d="M16.3154 2.67048C18.2806 2.95807 20.1499 3.72497 21.7316 4.92324C23.0737 5.9298 24.1281 7.27187 24.8471 8.80566C25.4702 10.1477 25.8057 11.6815 25.7578 13.1674C25.7099 13.8864 25.614 14.6053 25.3744 15.2764H25.2785L25.3264 14.2698C25.3744 12.8319 25.2306 11.4419 24.7033 10.0998C24.224 8.66187 23.3613 7.36773 22.3068 6.31325C20.2937 4.396 17.6095 3.34152 14.8295 3.29359C13.0213 3.2637 11.231 3.65528 9.60038 4.43731C7.96977 5.21934 6.54366 6.37033 5.43502 7.79911C4.0156 9.71712 3.33493 12.0824 3.51778 14.4615L3.61364 15.6598C3.99709 15.6598 4.52433 15.6598 4.81192 15.9953L4.66812 16.1391L3.85329 16.1871C3.27812 16.235 2.70295 16.4267 2.27157 16.8102C1.79474 17.3221 1.50724 17.9817 1.45674 18.6795C1.21708 20.2133 2.03191 21.795 3.32605 22.6577C4.09295 23.1371 5.05157 23.3767 5.96226 23.0891C6.15399 22.9933 6.39364 22.8495 6.6333 22.9453C6.77709 22.9933 6.82502 23.1371 6.87295 23.2809C7.84793 25.2413 9.33945 26.8986 11.1868 28.074C11.5702 28.4095 12.0495 28.6971 12.5288 28.9367C13.3916 29.3202 14.3502 29.6078 15.2609 29.8474L16.7947 30.2309C17.0343 30.2788 17.2261 30.2788 17.4178 30.3747L17.2261 30.4226C16.0278 30.5184 14.9254 30.2788 13.775 29.9433C13.1999 29.7995 12.6726 29.6078 12.1454 29.3681C10.6393 28.601 9.27723 27.5795 8.11916 26.3484L8.21502 27.6905C8.26296 28.5053 8.21502 29.3681 7.92744 30.1829C7.73571 30.7581 7.4002 31.3333 7.01675 31.8126C6.53744 32.2919 5.96226 32.7233 5.38709 33.0588C4.90778 33.3943 4.38054 33.7298 3.85329 33.9216L3.0864 34.1612L3.51778 33.7298L5.00364 32.7712L6.05813 31.9564C6.86676 31.2679 7.40932 30.3184 7.59192 29.2722C7.68778 28.6012 7.68778 27.9302 7.68778 27.2112V25.9171C7.20847 25.246 6.6333 24.5271 6.39364 23.7122C5.57881 24.0957 4.57226 24.0478 3.75743 23.6643C2.9426 23.3288 2.22364 22.7536 1.6964 22.0826C1.12122 21.2677 0.785704 20.3571 0.689842 19.3984C0.59398 18.4398 0.785704 17.4812 1.40881 16.7143C1.84019 16.235 2.46329 15.8515 3.0864 15.7077C2.89467 15.0367 2.79881 14.3177 2.79881 13.5988C2.83824 12.014 3.21319 10.4555 3.89893 9.02621C4.58467 7.5969 5.56562 6.32919 6.77709 5.30669C8.08594 4.21067 9.61468 3.40819 11.2601 2.95342C12.9056 2.49864 14.6295 2.40216 16.3154 2.67048Z" fill="#262626"/>
<path d="M22.3066 6.31813C23.3611 7.37261 24.2239 8.66675 24.7032 10.1047C25.2304 11.4468 25.3742 12.8368 25.3263 14.2747L25.2784 15.2812L25.0387 16.0002L24.9428 16.6233L25.0387 19.3075C25.0387 20.314 25.0866 21.3206 24.9908 22.3271L24.847 24.5799C24.7511 25.3468 24.5115 26.0657 24.1759 26.7368C23.6487 27.5995 22.9297 28.3185 22.067 28.8457C21.4439 29.2292 20.7728 29.4209 20.1018 29.6126L18.2804 30.1399L17.4656 30.2837C17.4656 30.3316 17.5135 30.3795 17.6094 30.3795C17.9928 30.6192 18.4242 30.6192 18.8556 30.5713C18.7118 30.9068 18.6639 31.2423 18.7597 31.6257C18.9035 31.9613 19.287 32.153 19.5746 32.2968C20.1497 32.5844 20.7249 32.6323 21.3001 32.7282C21.6356 33.0157 21.9711 33.3992 22.067 33.8785C22.1628 34.262 22.1628 34.6454 21.9711 34.9809C21.7314 35.4602 21.3001 35.8437 20.8208 36.0833C20.1977 36.4668 19.5266 36.7544 18.8077 36.9461C15.3082 37.7838 11.6587 37.7674 8.16695 36.8982C7.35212 36.7064 6.58522 36.4668 5.86626 36.0833C5.29108 35.7958 4.76384 35.4602 4.33246 35.0289C4.09281 34.6933 3.90108 34.3578 3.85315 33.9264C4.38039 33.7347 4.90763 33.3992 5.38695 33.0637C5.96212 32.7282 6.53729 32.2968 7.0166 31.8175C7.40005 31.3382 7.73557 30.763 7.92729 30.1878C8.21488 29.373 8.26281 28.5102 8.21488 27.6954L8.11902 26.3533L9.1735 27.4557C10.0842 28.1747 11.0907 28.8937 12.1452 29.373C12.6725 29.6126 13.1997 29.8044 13.7749 29.9482C14.9252 30.2837 16.0276 30.5233 17.2259 30.4275L17.4177 30.3795C17.2259 30.2837 17.0342 30.2837 16.7945 30.2357L15.2608 29.8523C14.3501 29.6126 13.3914 29.3251 12.5287 28.9416L11.1387 28.1268C10.6114 27.6954 10.0363 27.3119 9.55695 26.8326C8.44955 25.8274 7.53928 24.6246 6.87281 23.2857C6.82488 23.1419 6.77695 22.9981 6.63315 22.9502C6.3935 22.8544 6.15384 22.9981 5.96212 23.094C5.05143 23.3816 4.09281 23.1419 3.32591 22.6626C2.67873 22.2354 2.16185 21.6381 1.83207 20.9362C1.50229 20.2344 1.37237 19.4552 1.4566 18.6844C1.50453 18.0133 1.79211 17.3423 2.27142 16.815C2.7028 16.4316 3.27798 16.2399 3.85315 16.1919L4.66798 16.144L4.81177 16.0002C4.52419 15.6647 3.99694 15.6647 3.61349 15.6647L3.51763 14.4664C3.33479 12.0873 4.01545 9.722 5.43488 7.80399C6.54351 6.37521 7.96962 5.22422 9.60024 4.44219C11.2309 3.66016 13.0212 3.26858 14.8294 3.29847C17.6094 3.3464 20.2935 4.40088 22.3066 6.31813Z" fill="#FFDECC"/>
<path d="M25.0391 15.9987C25.1829 15.9987 25.1829 16.1904 25.2308 16.2863C25.3746 16.8135 25.4225 17.3887 25.4705 17.9159L25.5663 18.9225C25.6143 19.977 25.6622 20.9835 25.6143 22.038C25.5663 23.0446 25.5663 24.147 25.3746 25.1535C25.171 26.1973 24.7151 27.1753 24.0468 28.0024C23.3784 28.8295 22.5178 29.4805 21.5401 29.8987C20.8212 30.2342 20.0543 30.426 19.2394 30.5218V31.2408C19.2874 31.3846 19.3832 31.4325 19.4791 31.5284C20.0543 31.816 20.5815 31.9118 21.2046 32.0556C21.7798 32.1994 22.355 32.2953 22.9301 32.5829C22.7863 32.7267 22.5946 32.7746 22.4029 32.7746C22.0674 32.8225 21.6839 32.7267 21.3005 32.7267C20.7253 32.6308 20.1501 32.5829 19.5749 32.2953C19.2874 32.1515 18.9039 31.9598 18.7601 31.6242C18.6643 31.2408 18.7122 30.9053 18.856 30.5698C18.4246 30.6177 17.9932 30.6177 17.6098 30.378C17.5139 30.378 17.466 30.3301 17.466 30.2822L18.2808 30.1384L20.1022 29.6111C20.7732 29.4194 21.4443 29.2277 22.0674 28.8442C22.9301 28.317 23.6491 27.598 24.1763 26.7353C24.5119 26.0642 24.7515 25.3453 24.8474 24.5784L24.9912 22.3256C25.087 21.3191 25.0391 20.3125 25.0391 19.3059L24.9432 16.6218L25.0391 15.9987ZM3.08665 17.2928C3.4701 17.2928 3.90148 17.3408 4.18907 17.6284C4.42872 17.8201 4.66838 18.0597 4.76424 18.3473C4.81217 18.4911 4.76424 18.6349 4.66838 18.7308L4.04528 19.1142C3.70976 19.4018 3.70976 20.0249 4.04528 20.3125C4.33286 20.5522 4.71631 20.6959 5.05183 20.8397C5.14769 20.8397 5.29148 20.8877 5.33941 20.9835C5.29148 21.0794 5.19562 21.1273 5.09976 21.1273C4.62045 21.1273 4.14114 20.9835 3.75769 20.6959C3.51803 20.5522 3.37424 20.3125 3.32631 20.0728C3.23045 19.6894 3.23045 19.258 3.51803 18.9225C3.70976 18.6349 4.04528 18.4911 4.38079 18.3473C4.18907 18.1077 4.04528 17.8201 3.70976 17.7242C3.37424 17.5804 2.99079 17.5804 2.65527 17.4846L3.08665 17.2928Z" fill="#262626"/>
<path d="M23.7441 14.2279C23.9358 14.2279 24.1276 14.2279 24.2234 14.3717C24.4151 14.5154 24.4151 14.851 24.1755 14.9948C24.0317 15.0906 23.8879 15.0906 23.6962 15.0906L22.8334 15.2823C22.8334 15.6179 22.7855 16.0013 22.6417 16.3368C22.5458 16.5765 22.3541 16.7682 22.1624 16.912C21.8748 17.0558 21.5393 16.9599 21.3476 16.7203L21.2038 16.3368C21.06 16.4806 20.9641 16.6244 20.7724 16.7203C20.6286 16.7682 20.5807 16.7203 20.5807 16.5765C20.6286 16.2889 20.7724 16.0492 20.9641 15.8575C21.4688 15.1585 22.1693 14.6248 22.9772 14.3237L23.7441 14.2279ZM12.1448 14.8989C12.672 14.8989 13.1513 14.9948 13.6307 15.0906C14.3017 15.2823 14.9727 15.4741 15.5479 15.9534C15.6917 16.0972 15.9313 16.241 15.9793 16.4327C15.9793 16.5286 15.9793 16.5765 15.8834 16.5765L15.3562 16.3368C14.8769 16.0972 14.3017 15.9534 13.7265 15.8575C13.6307 16.2889 13.5348 16.7203 13.2472 17.1037C13.0555 17.2954 12.8158 17.3913 12.5282 17.3913C12.1448 17.3434 11.7613 17.1517 11.5217 16.8641C11.282 16.5286 11.2341 16.193 11.1862 15.7617L10.5151 15.9534C10.3713 16.0013 10.2275 16.0492 10.0837 16.0013C9.84409 15.9534 9.74823 15.7137 9.79616 15.4741C9.84409 15.2823 10.0358 15.1865 10.2275 15.1386C10.8027 14.8989 11.5217 14.851 12.1448 14.8989Z" fill="#262626"/>
<path d="M13.967 9.48255C14.7339 9.53049 15.5487 9.81807 16.1718 10.2974C16.3156 10.4412 16.5073 10.537 16.5552 10.7288C16.6032 10.8246 16.5073 10.9684 16.4115 10.9205C16.028 10.8726 15.6925 10.6808 15.309 10.585C14.9735 10.4412 14.5901 10.3453 14.2066 10.3453C13.8711 10.2974 13.4877 10.3453 13.1521 10.3932C12.4332 10.4891 11.7142 10.8246 11.0911 11.1601L10.0846 11.5915L10.0366 11.5436C10.0846 11.3519 10.1804 11.1122 10.3242 10.9684C10.6118 10.4891 11.139 10.2015 11.6183 9.96186C12.3373 9.62635 13.1521 9.43462 13.967 9.48255ZM23.2656 9.67428C23.5053 9.77014 23.7928 9.91393 23.9846 10.1536C24.1763 10.3453 24.2242 10.585 24.1763 10.8726L23.0739 10.537C22.7384 10.4412 22.4508 10.4891 22.1153 10.4412C21.7797 10.4412 21.3963 10.4891 21.1087 10.6808L20.4856 11.0643H20.3418C20.2939 10.9205 20.3418 10.7767 20.4377 10.6808C20.6773 10.2495 21.0608 9.96186 21.4922 9.81807C22.0673 9.62635 22.6425 9.53049 23.2656 9.67428Z" fill="#262626"/>
<path d="M19.9095 20.3607V20.4086C19.7178 20.7921 19.3823 21.1276 18.9509 21.2714C18.8071 21.3193 18.6154 21.3193 18.5195 21.2234V21.0317C18.855 20.7921 19.2864 20.6003 19.6699 20.4565L19.9095 20.3607Z" fill="#262626"/>
<path fill-rule="evenodd" clip-rule="evenodd" d="M13.2002 22.0357L12.5292 21.844H12.4813C12.3854 21.7961 12.2416 21.7961 12.1937 21.8919C12.1458 21.9398 12.1937 22.0357 12.2416 22.0357L12.5292 22.1795L12.6251 22.2274C13.7271 22.7841 14.9066 23.1718 16.124 23.3778C16.124 23.7133 16.2199 24.0488 16.4595 24.3364C16.6992 24.6719 17.0347 24.9595 17.4661 25.1033C17.9454 25.295 18.4727 25.2471 18.952 25.0554C19.4313 24.8636 19.8147 24.4802 20.0065 24.0009C20.1023 23.8092 20.1023 23.5695 20.1023 23.3778L20.9651 23.0902V23.0423L21.0609 22.9464C20.5976 22.9419 20.1343 22.9419 19.6709 22.9464C18.2945 23.0661 16.9082 23.0017 15.5489 22.7547L13.6795 22.2274L13.5837 22.1795L13.2002 22.0357ZM16.5075 23.4257C16.5554 23.905 16.9389 24.2885 17.3702 24.5281C17.9454 24.9595 18.904 24.7678 19.2875 24.1447C19.4313 23.953 19.4792 23.7133 19.5271 23.4736V23.4257L18.2809 23.5216L18.3289 23.5695C18.3289 23.7133 18.3768 23.8092 18.2809 23.953C18.1851 24.0967 17.9933 24.0967 17.9454 23.953C17.8496 23.8092 17.8496 23.6654 17.8975 23.5216C17.4985 23.4848 17.099 23.4528 16.6992 23.4257H16.5075Z" fill="#262626"/>
<path d="M11.7624 0.660156H13.6797C16.0283 0.756018 18.329 1.1874 20.5817 1.71464C21.9238 2.05016 23.17 2.48154 24.3683 3.15257C24.9914 3.53602 25.6624 4.01533 26.1417 4.59051C26.7169 5.21361 27.1004 5.98051 27.2442 6.79534C27.4359 7.80189 27.4359 8.85637 27.1004 9.86293C26.8607 10.5819 26.4293 11.3009 25.8062 11.7802C24.9435 12.4991 23.841 12.9784 22.7386 13.0264C22.6428 13.0743 22.5469 13.0264 22.5469 12.8826L22.9304 12.1157C22.4167 12.6191 21.7932 12.9965 21.109 13.2181C20.9173 13.266 20.6297 13.314 20.4379 13.2181V12.9784C20.4379 12.2595 20.39 11.5884 20.1983 10.9174C20.0545 10.1505 19.671 9.52741 19.3355 8.85637C19.4314 9.57534 19.3835 10.3422 19.2397 11.0612C19.0959 11.7322 18.8083 12.3074 18.329 12.7867C18.2331 12.9784 17.9935 13.0264 17.8017 12.9305L17.7059 12.595C17.61 12.0678 17.3703 11.5884 17.1307 11.1091C16.6993 10.1505 16.0762 9.33568 15.3572 8.56879C14.3078 7.51959 13.0726 6.67445 11.7145 6.07637C11.785 7.75212 11.6237 9.42959 11.2352 11.0612C11.0434 11.7322 10.7559 12.4033 10.3245 12.9784C10.1807 13.1702 9.98896 13.4578 9.7493 13.5536H9.41379C9.46172 12.9784 9.46172 12.4033 9.36586 11.8281C9.26999 11.3009 9.1262 10.7257 8.88654 10.2464C8.74275 11.1091 8.26344 11.8281 7.68827 12.4991C7.25689 12.8826 6.82551 13.266 6.29826 13.5536V16.8129L6.3462 18.2509C6.3462 18.3947 6.2024 18.6343 6.05861 18.6822C5.81895 18.6343 5.62723 18.5385 5.43551 18.3947C4.86033 18.0112 4.33309 17.5798 3.85378 17.0526C3.0672 16.1796 2.46617 15.1559 2.08717 14.0436C1.70816 12.9313 1.55907 11.7536 1.64895 10.5819C1.80899 8.51875 2.56448 6.54643 3.82371 4.90433C5.08293 3.26223 6.79176 2.02096 8.74275 1.33119C9.70137 0.947743 10.7079 0.708087 11.7624 0.660156Z" fill="#262626"/>
</svg>
