<svg width="31" height="43" viewBox="0 0 31 43" fill="none" xmlns="http://www.w3.org/2000/svg">
<path fill-rule="evenodd" clip-rule="evenodd" d="M18.4361 1.2854C18.1485 0.806093 17.7171 0.374713 17.094 0.326782L17.2857 0.614369L17.3816 0.806093L17.7171 1.4292L17.8129 1.52506C18.0526 2.10023 18.1964 2.67541 18.2443 3.29851C18.2443 3.63403 18.1485 3.92161 18.0526 4.25713C17.9088 3.4423 17.4774 2.8192 16.9981 2.24403C16.4894 1.72327 15.8656 1.32925 15.1767 1.09368C14.2324 0.718415 13.1973 0.634935 12.205 0.854024C11.8216 0.901955 11.486 1.09368 11.1026 1.2854C10.7671 1.47713 10.4795 1.76471 10.1919 2.00437C9.49568 2.69652 8.95627 3.53015 8.61018 4.44886C8.32259 5.16782 7.98707 5.88679 7.55569 6.55782C7.22018 7.133 6.74087 7.66024 6.26156 8.09162L4.91948 9.00231C4.13142 9.49808 3.36389 10.0258 2.61879 10.584C1.51638 11.5427 0.701548 12.8368 0.270168 14.2747C0.078444 14.9937 -0.0653493 15.7606 0.0305129 16.4796C0.126375 16.863 0.222237 17.1985 0.413962 17.534V17.9175C0.222237 18.8282 0.174306 19.7868 0.461893 20.6975C0.777391 21.7726 1.3164 22.7689 2.04362 23.6213L2.71465 24.532C3.00224 25.0113 3.2419 25.5385 3.28983 26.1137C3.28983 26.5451 3.14603 26.9285 2.81052 27.2161C2.55258 27.4427 2.23721 27.5939 1.89901 27.6531C1.56081 27.7123 1.21284 27.6772 0.893273 27.5516L0.653617 27.4078L0.461893 27.312L0.413962 27.4078C0.366031 27.4558 0.318099 27.5516 0.366031 27.6475L0.701548 28.2706C0.989135 28.6541 1.32465 28.9416 1.75603 29.1334C2.09155 29.3251 2.475 29.373 2.85845 29.2772C3.0981 29.2292 3.28983 29.1334 3.48155 28.9896C3.48155 29.4689 3.62534 29.9482 3.76914 30.3796C3.96086 30.9068 4.24845 31.4341 4.67983 31.8175C5.06328 32.201 5.54259 32.3927 6.0219 32.5365C6.45328 32.6803 6.88466 32.6803 7.31604 32.5844C7.4119 32.5365 7.4119 32.4885 7.4119 32.3927L7.26811 32.0572L7.22018 31.9613L6.83673 31.0027C7.69949 31.6258 8.70604 31.9134 9.76052 32.0092C10.4316 32.0572 11.1505 31.9613 11.7736 31.7216C11.9174 31.6737 12.1091 31.5779 12.1571 31.4341C12.2529 31.2903 12.1571 31.1465 12.1091 31.0027L11.9174 30.2837L11.8695 30.1399C12.3009 30.4275 12.7323 30.6192 13.2595 30.6192C13.8347 30.6192 14.4578 30.3796 14.7933 29.9003L14.9371 29.8523C14.6973 27.7381 14.1983 25.6615 13.4512 23.6692C13.1272 22.8042 12.7261 21.9701 12.2529 21.1768L12.1571 20.8892C12.1571 20.1703 12.0612 19.3554 11.6298 18.7803C11.9654 18.253 12.0133 17.582 12.0612 17.0068C12.0612 16.5275 12.0612 16.0482 11.8216 15.6168L12.0133 15.5689L12.3967 15.5209C12.4926 15.473 12.5405 15.3292 12.5885 15.2334C12.9094 13.9013 13.3923 12.6135 14.0264 11.3989L14.3619 10.7278C14.4578 10.584 14.4578 10.4402 14.5057 10.2485V10.0568L14.4098 9.38576L14.3619 8.95438L15.3205 9.24197H15.7998C18.2223 8.82492 20.6924 8.76035 23.1333 9.05024L23.4688 9.1461L23.7085 9.24197C23.8043 9.24197 23.9481 9.19403 23.9961 9.09817C24.1399 8.95438 24.1878 8.76265 24.2357 8.57093L24.3795 8.66679L24.8109 9.00231L25.1464 9.19403C25.3675 9.23536 25.5927 9.25144 25.8174 9.24197L26.5843 10.0089L26.6323 10.0568C27.6424 11.2117 28.5112 12.4828 29.2205 13.8433C29.4123 13.9871 29.6519 13.8913 29.7478 13.6996C30.0833 12.9327 30.1312 12.0699 29.9874 11.2551C29.7212 10.038 29.085 8.93298 28.1661 8.09162C27.8785 7.7561 27.495 7.46851 27.1116 7.18093L25.0985 6.12644C24.0919 5.69506 23.0374 5.35955 21.983 5.16782C20.7847 4.92817 19.5864 4.92817 18.3402 4.9761C18.8674 4.44886 19.0112 3.72989 19.0112 3.01092C19.0112 2.38782 18.7716 1.81265 18.4361 1.2854ZM6.06983 9.81714C6.645 9.1461 7.22018 8.47507 7.65156 7.66024L6.88466 8.47507C6.40535 8.90645 5.87811 9.19403 5.35086 9.52955L4.82362 9.86507L4.67983 9.913C4.05672 10.2964 3.38569 10.7278 2.85845 11.2071C1.80396 12.1178 1.085 13.364 0.749479 14.7061C0.605686 15.4251 0.509824 16.192 0.701548 16.9109C0.989135 16.0482 1.42051 15.1854 1.89983 14.4185C2.52293 13.4599 3.28983 12.5492 4.10466 11.7344L5.01535 10.8237L6.06983 9.81714Z" fill="#262626"/>
<path d="M19.8258 5.64839C21.1678 5.69632 22.5099 5.93597 23.852 6.36735C25.7281 6.89701 27.3994 7.98335 28.6451 9.48287C29.5558 10.6812 30.131 12.1191 30.3227 13.6049C30.5814 15.2062 30.6136 16.8358 30.4185 18.446L30.1789 20.0756L29.9872 21.0343C29.9392 21.1301 29.9392 21.1301 29.8434 21.1301C29.7475 20.9384 29.7475 20.7467 29.7475 20.555C29.6996 19.836 29.7954 19.165 29.8434 18.446C29.8913 17.2956 29.9872 16.1453 29.8913 14.995L29.6037 12.8381C29.2682 11.496 28.6451 10.2498 27.6865 9.24322C26.8237 8.38046 25.7692 7.66149 24.6668 7.18218C23.6123 6.7508 22.5578 6.46322 21.4554 6.27149C20.5927 6.1277 19.7299 6.07977 18.8671 6.07977C16.7403 6.04494 14.6361 6.52165 12.732 7.46977C12.1089 7.90115 11.5337 8.42839 11.0544 9.00356C9.57951 10.9396 8.66731 13.245 8.41817 15.666C8.37024 16.8163 8.41817 17.9187 8.80162 19.0212L9.13713 19.7401L9.71231 19.7881L9.76024 19.9319C9.61644 20.0277 9.42472 20.0277 9.233 20.0756C8.75368 20.1715 8.27437 20.3632 7.84299 20.6508C7.50748 20.8905 7.17196 21.1781 6.98023 21.5615C6.74058 22.0408 6.83644 22.616 6.9323 23.1432C7.17196 24.0539 7.74713 24.9167 8.51403 25.4919C9.04127 25.9232 9.71231 26.1629 10.3833 26.2588C10.8627 26.3546 11.342 26.2588 11.8213 26.2108C12.0609 26.4025 12.2047 26.786 12.3485 27.0257L13.2113 28.3198C13.991 29.428 15.0968 30.2657 16.3747 30.7163C17.4292 31.1477 18.5316 31.3874 19.634 31.627L21.5992 32.0105L22.414 32.2501V32.4419H21.8389C20.7614 32.3818 19.6888 32.2537 18.6275 32.0584C17.2021 31.7748 15.8386 31.2391 14.6013 30.4767C14.074 30.1412 13.5947 29.7098 13.2113 29.1826C13.5433 31.1803 13.2764 33.2317 12.4444 35.0781C11.7254 36.3722 10.5271 37.3788 9.0892 37.8102C8.94541 37.8581 8.75368 37.906 8.60989 37.8581C8.51403 37.8581 8.51403 37.8102 8.51403 37.7143C8.56196 37.5705 8.70575 37.4746 8.80162 37.4267C9.37679 37.0433 10.0478 36.7557 10.623 36.3243C11.2461 35.797 11.7733 35.2219 12.1089 34.5029C12.3964 33.7839 12.5882 32.9691 12.684 32.1543C12.7799 31.5312 12.8278 30.9081 12.7799 30.237L12.5882 28.4157L11.7254 26.6901L10.8147 26.8819C10.1111 26.9023 9.41361 26.7464 8.78571 26.4283C8.15782 26.1101 7.61953 25.6399 7.21989 25.0605C6.59509 24.2689 6.25715 23.2889 6.26127 22.2805C6.26127 21.8491 6.40506 21.4177 6.64472 21.0822C6.88437 20.7467 7.21989 20.4591 7.55541 20.2674C7.79506 20.0756 8.13058 19.9798 8.41817 19.8839L7.98679 18.7336C7.74713 17.6791 7.74713 16.5767 7.89092 15.5222C8.2048 12.9047 9.25152 10.4291 10.9106 8.38046C11.342 7.90115 11.7733 7.46977 12.3006 7.13425C12.6361 6.94253 12.9716 6.8946 13.2592 6.70287C15.3202 5.79218 17.573 5.50459 19.8258 5.64839Z" fill="#262626"/>
<path d="M18.8669 6.07842C20.8585 6.00434 22.8411 6.38119 24.6666 7.18084C25.769 7.66015 26.8235 8.37911 27.6862 9.24187C28.6449 10.2484 29.268 11.4946 29.6035 12.8367L29.8911 14.9936C29.9869 16.144 29.8911 17.2943 29.8431 18.4446C29.7952 19.1636 29.6993 19.8346 29.7473 20.5536C29.7473 20.7453 29.7473 20.9371 29.8431 21.1288L29.7952 22.0874C29.6993 22.3271 29.6993 22.5667 29.6993 22.8543C29.6035 24.0046 29.6035 25.2029 29.4118 26.4012C29.3638 26.9764 29.268 27.5995 29.0283 28.1267C28.8845 28.5581 28.6449 28.9415 28.3093 29.2771C27.7342 29.9002 27.0152 30.4274 26.2483 30.8588C25.3376 31.386 24.379 31.6257 23.4683 32.0091C23.2286 32.105 22.989 32.2009 22.8452 32.3926C23.2286 32.4405 23.5642 32.3926 23.9476 32.2967C23.708 32.8719 23.66 33.4471 23.66 34.0222C23.66 34.2619 23.6121 34.5495 23.708 34.7891C23.8517 35.0288 24.0914 35.2205 24.3311 35.3643L26.0086 35.9874C27.0631 36.3709 28.0697 36.8502 29.1242 37.2816C29.22 37.4733 29.3638 37.6171 29.4118 37.8567C29.6993 38.384 29.7473 38.9591 29.5555 39.5343C29.3159 40.1574 28.8366 40.6847 28.2614 41.0202C27.4945 41.5474 26.5359 41.9309 25.6252 42.1705C21.8983 42.9668 18.0343 42.8517 14.3614 41.835C13.4028 41.4995 12.4441 41.164 11.5814 40.6847C10.9104 40.3012 10.1914 39.8219 9.66414 39.1988C9.37656 38.8154 9.1369 38.2881 9.08897 37.8088C10.2113 37.4662 11.2046 36.7939 11.9398 35.8793C12.6749 34.9646 13.1179 33.8499 13.211 32.6802C13.4028 31.5298 13.4028 30.3316 13.211 29.1812C13.5945 29.7084 14.0738 30.1398 14.601 30.4753L15.8952 31.1464C17.7743 31.9571 19.7926 32.3965 21.8386 32.4405H22.4138V32.2488L21.599 32.0091L19.6338 31.6257C18.5314 31.386 17.429 31.1464 16.3745 30.715C15.7514 30.4274 15.0804 30.0919 14.5052 29.7084C14.0259 29.2771 13.5945 28.8457 13.211 28.3184L12.3483 27.0243C12.2045 26.7847 12.0607 26.4012 11.821 26.2095C11.3417 26.2574 10.8624 26.3533 10.3831 26.2574C9.71207 26.1615 9.04104 25.9219 8.5138 25.4905C7.74786 24.898 7.19321 24.0744 6.93207 23.1419C6.83621 22.6146 6.74035 22.0395 6.98 21.5602C7.17173 21.1767 7.50724 20.8891 7.84276 20.6495C8.27414 20.3619 8.75345 20.1702 9.23276 20.0743C9.42449 20.0264 9.61621 20.0264 9.76 19.9305L9.71207 19.7867L9.1369 19.7388L8.80138 19.0198C8.41793 17.9174 8.37 16.815 8.46587 15.6646C8.70098 13.2484 9.59642 10.9435 11.0541 9.00222C11.5335 8.42705 12.1086 7.8998 12.7317 7.46842C14.6318 6.50372 16.7361 6.01052 18.8669 6.03049V6.07842Z" fill="#FFDECC"/>
<path d="M8.56299 21.7981C8.75471 21.7981 8.89851 21.7981 9.09023 21.894C9.32989 21.9419 9.61747 22.0857 9.76127 22.2774C9.85713 22.4212 9.85713 22.6129 9.76127 22.7567C9.52161 23.0443 9.18609 23.236 8.99437 23.5236C9.28195 23.7153 9.6654 23.8112 10.0009 23.955C10.1926 24.0029 10.3844 24.0988 10.5282 24.2426L10.5761 24.3864L10.1926 24.2905L9.0423 23.955C8.85057 23.9071 8.65885 23.8112 8.61092 23.6195C8.56299 23.4757 8.65885 23.284 8.75471 23.1402L9.47368 22.5171C9.28195 22.1815 8.75471 22.1336 8.56299 21.7981ZM29.7965 22.0857L29.8923 22.2295L29.9882 22.9964C30.0876 24.4182 30.0555 25.8463 29.8923 27.2622C29.7965 27.7895 29.6527 28.3647 29.413 28.844C28.1413 30.5078 26.355 31.7043 24.3323 32.2471C24.2844 32.9181 24.1885 33.7329 24.2365 34.4998L24.4761 34.7395C24.8596 35.0271 25.3389 35.1709 25.7703 35.3147C26.8914 35.6726 27.9815 36.1214 29.0296 36.6567C29.3651 36.8485 29.6527 37.0881 29.8923 37.3757C29.6527 37.4236 29.413 37.3278 29.1254 37.2798C28.0709 36.8485 27.0644 36.3691 26.0099 35.9857L24.3323 35.3626C24.0927 35.2188 23.853 35.0271 23.7092 34.7874C23.6134 34.5478 23.6613 34.2602 23.6613 34.0205C23.6613 33.4454 23.7092 32.8702 23.9489 32.295C23.5654 32.3909 23.2299 32.4388 22.8465 32.3909C22.9902 32.1991 23.2299 32.1033 23.4696 32.0074C24.3802 31.624 25.3389 31.3843 26.2496 30.8571C27.0165 30.4257 27.7354 29.8984 28.3106 29.2753C28.6461 28.9398 28.8858 28.5564 29.0296 28.125C29.2692 27.5978 29.3651 26.9747 29.413 26.3995C29.6047 25.2012 29.6047 24.0029 29.7006 22.8526C29.7006 22.565 29.7006 22.3253 29.7965 22.0857Z" fill="#262626"/>
<path d="M28.1658 17.103C28.5493 17.0551 28.9327 17.151 29.2203 17.3906C29.3641 17.5344 29.5079 17.7262 29.5079 17.9179C29.5558 18.1575 29.3162 18.3972 29.0765 18.3972C28.8848 18.3493 28.7889 18.2534 28.6931 18.1096L28.2138 17.7741C28.6451 18.541 28.4055 19.5955 27.7345 20.1227C27.3989 20.4103 26.8717 20.5062 26.5362 20.1706C26.2486 19.931 26.1527 19.5955 26.1527 19.212C26.0569 19.4517 25.9131 19.6434 25.8651 19.8831C25.8172 19.9789 25.8172 20.0748 25.7213 20.0748C25.6255 19.8351 25.6734 19.5475 25.7693 19.2599C26.0569 18.493 26.5841 17.822 27.3031 17.4386C27.5427 17.2468 27.8303 17.151 28.1658 17.103ZM18.0044 17.6303C19.2986 17.6782 20.5448 18.493 21.072 19.6434C21.1679 19.7393 21.2638 19.931 21.12 20.0748C20.9762 20.0748 20.8803 19.8831 20.7844 19.7872C20.5927 19.4037 20.3051 19.1162 19.9696 18.8765C20.0655 19.4037 20.0655 19.8831 19.7779 20.3624C19.5382 20.7458 19.011 20.9855 18.5796 20.9375C18.2441 20.8417 17.9086 20.6979 17.6689 20.4103C17.3813 20.1227 17.2855 19.6434 17.2855 19.2599C17.2855 18.9244 17.4293 18.6368 17.5731 18.3972C16.902 18.541 16.231 18.8286 15.7038 19.2599C15.56 19.3079 15.4641 19.4037 15.3203 19.4037C15.1286 19.3558 15.0327 19.212 15.0327 19.0203C15.0327 18.8765 15.1286 18.7327 15.2244 18.6368C15.6079 18.3493 15.9913 18.0617 16.4706 17.8699C16.95 17.6782 17.4772 17.5824 18.0044 17.6303Z" fill="#262626"/>
<path d="M18.4848 12.5002C19.2038 12.5482 20.0186 12.7399 20.5938 13.2192C20.7855 13.363 20.9772 13.5547 21.0252 13.7464C21.0731 13.8902 21.0731 13.9861 20.9293 14.034C20.7855 14.034 20.6417 13.8902 20.5458 13.7944C20.0186 13.4109 19.3955 13.1713 18.7245 13.1713C18.341 13.1713 18.0055 13.2671 17.622 13.363C16.9031 13.5068 16.232 13.8902 15.8007 14.4654C15.6569 14.6092 15.561 14.8009 15.3214 14.8489C15.0817 14.8968 14.842 14.7051 14.842 14.4654C14.7941 14.2737 14.9379 14.082 15.0338 13.9382C15.6089 13.2192 16.4717 12.7399 17.3824 12.5482C17.7179 12.4523 18.1014 12.4523 18.4848 12.5002ZM28.3107 12.9795C28.5503 13.0754 28.79 13.3151 28.9338 13.5068C29.0776 13.6506 29.1734 13.8423 29.1734 14.034C29.1734 14.3216 28.8859 14.5133 28.5983 14.4175C28.3586 14.3216 28.3107 14.082 28.119 13.8902C27.9272 13.7464 27.6876 13.5547 27.4958 13.5068C26.9207 13.3151 26.3455 13.5547 25.9621 13.9382L25.5307 14.3695C25.5307 14.034 25.7224 13.7464 25.9621 13.5547C26.5372 12.9316 27.4958 12.692 28.3107 12.9795Z" fill="#262626"/>
<path d="M25.1943 23.4778C25.1943 23.6216 25.0984 23.7654 25.0026 23.9092C24.8108 24.1967 24.4753 24.3885 24.1398 24.4843C23.9001 24.5323 23.7084 24.3885 23.5167 24.4843C23.325 24.4843 23.1332 24.5323 22.9415 24.4364C22.8457 24.3885 22.8457 24.2447 22.9415 24.1488C23.0853 23.9571 23.325 23.8133 23.5167 23.8133C23.7084 23.7654 23.8522 23.7654 23.996 23.9092L24.0439 24.2447C24.2836 24.1488 24.3795 24.005 24.5712 23.8612L25.1943 23.4778Z" fill="#262626"/>
<path d="M18.9151 26.0625C19.0589 26.0625 19.1548 26.1584 19.2506 26.2542L19.8738 26.5897C20.401 26.8294 20.9762 26.9732 21.5034 27.117C22.2224 27.3566 22.9413 27.4046 23.6603 27.4046C24.2355 27.4525 24.7627 27.5004 25.29 27.4525L25.4817 27.5484C24.6189 27.9797 23.5165 28.0756 22.5579 28.0277C21.4555 27.9797 20.3531 27.6442 19.3944 27.1649C19.1069 26.9732 18.7713 26.7815 18.7234 26.398C18.6755 26.2542 18.7713 26.0625 18.9151 26.0625Z" fill="#262626"/>
<path d="M20.449 4.97876C22.0567 5.07071 23.6332 5.46078 25.0983 6.12911C25.7693 6.46463 26.4883 6.80014 27.1114 7.23152C27.4949 7.47118 27.8783 7.75877 28.1659 8.09428L29.2204 9.29256C28.789 9.48429 28.3576 9.43635 27.9262 9.38842C27.1114 9.29256 26.2966 9.1967 25.4818 9.24463L25.0983 9.1967L24.7628 8.95704L24.1876 8.57359C24.1876 8.76532 24.1397 8.90911 24.0438 9.10084C23.948 9.1967 23.8521 9.24463 23.7083 9.24463C23.5166 9.1967 23.3728 9.10084 23.1811 9.10084C20.7137 8.7372 18.2031 8.78579 15.7517 9.24463H15.2245L14.3617 8.95704C14.4097 9.38842 14.5535 9.8198 14.5055 10.2033C14.4576 10.395 14.4576 10.5867 14.3617 10.7305C14.0262 11.4015 13.6428 12.0246 13.3552 12.7436C13.0197 13.5584 12.7321 14.4212 12.5404 15.2839C12.5404 15.3798 12.4924 15.4757 12.3966 15.5236L11.8214 15.6195C12.061 16.0508 12.109 16.5781 12.061 17.0574C12.0131 17.6326 11.9173 18.3036 11.6297 18.7829C11.9652 19.2143 12.109 19.7895 12.109 20.3646C12.1569 21.2753 12.109 22.1381 11.7735 23.0009C11.6776 23.1926 11.5338 23.4322 11.2941 23.5281C11.2462 23.576 11.1024 23.576 11.1024 23.4802C11.0066 23.2884 11.0066 23.0488 10.9586 22.8571C10.8628 22.1381 10.5273 21.4671 10 20.9398C9.61656 20.6043 9.18518 20.2688 8.7538 20.0291C8.46621 19.9333 8.22656 19.8374 7.9869 19.6457L7.69932 19.2622C7.12414 17.7284 6.93242 16.0508 7.12414 14.4212C7.32792 12.5112 7.93222 10.6656 8.89759 9.00497C9.3769 8.23808 9.95208 7.56704 10.5752 6.94394C11.0545 6.51256 11.5338 6.12911 12.061 5.84152L12.7321 5.60187L14.2659 5.07462L15.1766 4.97876H17.2376C18.34 4.97876 19.3466 4.8829 20.449 4.97876Z" fill="#262626"/>
</svg>
