<svg width="184" height="40" viewBox="0 0 184 40" fill="none" xmlns="http://www.w3.org/2000/svg">
<path d="M12.3201 20.0002L20.6535 11.6668L28.9868 20.0002L20.6535 28.3335L12.3201 20.0002Z" fill="#1A1A1A"/>
<path d="M37.3201 10.0002V20.0002L20.6535 3.3335H30.6535L37.3201 10.0002Z" fill="#1A1A1A"/>
<path d="M37.3201 30.0002V20.0002L20.6535 36.6668H30.6535L37.3201 30.0002Z" fill="#1A1A1A"/>
<path d="M3.98682 30.0002V20.0002L20.6535 36.6668H10.6535L3.98682 30.0002Z" fill="#1A1A1A"/>
<path d="M3.98682 10.0002V20.0002L20.6535 3.3335H10.6535L3.98682 10.0002Z" fill="#1A1A1A"/>
<path d="M47.2998 27.4999V12.3332H49.7915V27.4999H47.2998ZM49.0115 27.4999V25.2249H56.9415V27.4999H49.0115Z" fill="#262626"/>
<path d="M58.9089 27.4999V17.0999H61.2922V27.4999H58.9089ZM60.1006 15.1932C59.6961 15.1932 59.3567 15.056 59.0822 14.7816C58.8222 14.5071 58.6922 14.1677 58.6922 13.7632C58.6922 13.3588 58.8222 13.0193 59.0822 12.7449C59.3567 12.4705 59.6961 12.3332 60.1006 12.3332C60.5195 12.3332 60.8589 12.4705 61.1189 12.7449C61.3789 13.0193 61.5089 13.3588 61.5089 13.7632C61.5089 14.1677 61.3789 14.5071 61.1189 14.7816C60.8589 15.056 60.5195 15.1932 60.1006 15.1932Z" fill="#262626"/>
<path d="M65.547 27.4999V12.7666H67.9304V27.4999H65.547ZM63.0554 19.2666V17.0999H76.7054V19.2666H63.0554ZM71.8304 27.4999V12.7666H74.2137V27.4999H71.8304Z" fill="#262626"/>
<path d="M78.438 27.4999V11.8999H80.8214V27.4999H78.438Z" fill="#262626"/>
<path d="M88.3055 27.7166C87.2655 27.7166 86.3266 27.4855 85.4888 27.0232C84.6655 26.5466 84.0083 25.8966 83.5172 25.0732C83.0405 24.2499 82.8022 23.3255 82.8022 22.2999C82.8022 21.2743 83.0405 20.3571 83.5172 19.5482C83.9938 18.7249 84.6366 18.0749 85.4455 17.5982C86.2688 17.1216 87.1788 16.8832 88.1755 16.8832C89.1433 16.8832 89.9955 17.1071 90.7322 17.5549C91.4833 18.0027 92.0683 18.6166 92.4872 19.3966C92.9205 20.1766 93.1372 21.0649 93.1372 22.0616C93.1372 22.2349 93.1227 22.4155 93.0938 22.6032C93.0794 22.7766 93.0505 22.9716 93.0072 23.1882H84.4705V21.2382H91.7722L90.8838 22.0182C90.8549 21.3827 90.7322 20.8482 90.5155 20.4149C90.2988 19.9816 89.9883 19.6493 89.5838 19.4182C89.1938 19.1871 88.7099 19.0716 88.1322 19.0716C87.5255 19.0716 86.9983 19.2016 86.5505 19.4616C86.1027 19.7216 85.7561 20.0899 85.5105 20.5666C85.2649 21.0288 85.1422 21.5849 85.1422 22.2349C85.1422 22.8849 85.2722 23.4555 85.5322 23.9466C85.7922 24.4377 86.1605 24.8205 86.6372 25.0949C87.1138 25.3549 87.6627 25.4849 88.2838 25.4849C88.8183 25.4849 89.3094 25.391 89.7572 25.2032C90.2194 25.0155 90.6094 24.741 90.9272 24.3799L92.4438 25.9182C91.9383 26.5105 91.3244 26.9582 90.6022 27.2616C89.8799 27.5649 89.1144 27.7166 88.3055 27.7166Z" fill="#262626"/>
<path d="M99.7103 27.4999V12.3332H102.202V27.4999H99.7103ZM101.422 27.4999V25.2249H109.352V27.4999H101.422Z" fill="#262626"/>
<path d="M115.77 27.7166C114.73 27.7166 113.791 27.4855 112.953 27.0232C112.13 26.5466 111.472 25.8966 110.981 25.0732C110.505 24.2499 110.266 23.3255 110.266 22.2999C110.266 21.2743 110.505 20.3571 110.981 19.5482C111.458 18.7249 112.101 18.0749 112.91 17.5982C113.733 17.1216 114.643 16.8832 115.64 16.8832C116.607 16.8832 117.46 17.1071 118.196 17.5549C118.947 18.0027 119.532 18.6166 119.951 19.3966C120.385 20.1766 120.601 21.0649 120.601 22.0616C120.601 22.2349 120.587 22.4155 120.558 22.6032C120.544 22.7766 120.515 22.9716 120.471 23.1882H111.935V21.2382H119.236L118.348 22.0182C118.319 21.3827 118.196 20.8482 117.98 20.4149C117.763 19.9816 117.452 19.6493 117.048 19.4182C116.658 19.1871 116.174 19.0716 115.596 19.0716C114.99 19.0716 114.462 19.2016 114.015 19.4616C113.567 19.7216 113.22 20.0899 112.975 20.5666C112.729 21.0288 112.606 21.5849 112.606 22.2349C112.606 22.8849 112.736 23.4555 112.996 23.9466C113.256 24.4377 113.625 24.8205 114.101 25.0949C114.578 25.3549 115.127 25.4849 115.748 25.4849C116.282 25.4849 116.774 25.391 117.221 25.2032C117.684 25.0155 118.074 24.741 118.391 24.3799L119.908 25.9182C119.402 26.5105 118.789 26.9582 118.066 27.2616C117.344 27.5649 116.579 27.7166 115.77 27.7166Z" fill="#262626"/>
<path d="M126.867 27.7166C125.928 27.7166 125.076 27.4782 124.31 27.0016C123.559 26.5249 122.96 25.8821 122.512 25.0732C122.079 24.2499 121.862 23.3327 121.862 22.3216C121.862 21.296 122.079 20.3788 122.512 19.5699C122.96 18.7466 123.559 18.0966 124.31 17.6199C125.076 17.1288 125.928 16.8832 126.867 16.8832C127.661 16.8832 128.362 17.0566 128.969 17.4032C129.59 17.7355 130.081 18.1977 130.442 18.7899C130.803 19.3821 130.984 20.0538 130.984 20.8049V23.7949C130.984 24.546 130.803 25.2177 130.442 25.8099C130.095 26.4021 129.611 26.8716 128.99 27.2182C128.369 27.5505 127.661 27.7166 126.867 27.7166ZM127.257 25.4632C128.138 25.4632 128.846 25.1671 129.38 24.5749C129.929 23.9827 130.204 23.2243 130.204 22.2999C130.204 21.6788 130.081 21.1299 129.835 20.6532C129.59 20.1766 129.243 19.8082 128.795 19.5482C128.362 19.2738 127.849 19.1366 127.257 19.1366C126.679 19.1366 126.166 19.2738 125.719 19.5482C125.285 19.8082 124.939 20.1766 124.679 20.6532C124.433 21.1299 124.31 21.6788 124.31 22.2999C124.31 22.921 124.433 23.4699 124.679 23.9466C124.939 24.4232 125.285 24.7988 125.719 25.0732C126.166 25.3332 126.679 25.4632 127.257 25.4632ZM130.052 27.4999V24.7049L130.464 22.1699L130.052 19.6566V17.0999H132.435V27.4999H130.052Z" fill="#262626"/>
<path d="M135.08 27.4999V17.0999H137.464V27.4999H135.08ZM137.464 21.7149L136.64 21.3032C136.64 19.9888 136.929 18.9271 137.507 18.1182C138.099 17.2949 138.988 16.8832 140.172 16.8832C140.692 16.8832 141.161 16.9771 141.58 17.1649C141.999 17.3527 142.389 17.656 142.75 18.0749L141.19 19.6782C141.003 19.476 140.793 19.3316 140.562 19.2449C140.331 19.1582 140.064 19.1149 139.76 19.1149C139.096 19.1149 138.547 19.3243 138.114 19.7432C137.68 20.1621 137.464 20.8193 137.464 21.7149Z" fill="#262626"/>
<path d="M151.032 27.4999V21.4982C151.032 20.8049 150.808 20.2343 150.36 19.7866C149.927 19.3388 149.364 19.1149 148.67 19.1149C148.208 19.1149 147.796 19.216 147.435 19.4182C147.074 19.6205 146.792 19.9021 146.59 20.2632C146.388 20.6243 146.287 21.036 146.287 21.4982L145.355 20.9782C145.355 20.1838 145.529 19.4832 145.875 18.8766C146.222 18.2555 146.699 17.7716 147.305 17.4249C147.926 17.0638 148.62 16.8832 149.385 16.8832C150.165 16.8832 150.859 17.0855 151.465 17.4899C152.072 17.8799 152.549 18.3927 152.895 19.0282C153.242 19.6493 153.415 20.2993 153.415 20.9782V27.4999H151.032ZM143.904 27.4999V17.0999H146.287V27.4999H143.904Z" fill="#262626"/>
<path d="M160.669 27.7166C159.629 27.7166 158.69 27.4855 157.852 27.0232C157.029 26.5466 156.372 25.8966 155.88 25.0732C155.404 24.2499 155.165 23.3255 155.165 22.2999C155.165 21.2743 155.404 20.3571 155.88 19.5482C156.357 18.7249 157 18.0749 157.809 17.5982C158.632 17.1216 159.542 16.8832 160.539 16.8832C161.507 16.8832 162.359 17.1071 163.095 17.5549C163.847 18.0027 164.432 18.6166 164.85 19.3966C165.284 20.1766 165.5 21.0649 165.5 22.0616C165.5 22.2349 165.486 22.4155 165.457 22.6032C165.443 22.7766 165.414 22.9716 165.37 23.1882H156.834V21.2382H164.135L163.247 22.0182C163.218 21.3827 163.095 20.8482 162.879 20.4149C162.662 19.9816 162.352 19.6493 161.947 19.4182C161.557 19.1871 161.073 19.0716 160.495 19.0716C159.889 19.0716 159.362 19.2016 158.914 19.4616C158.466 19.7216 158.119 20.0899 157.874 20.5666C157.628 21.0288 157.505 21.5849 157.505 22.2349C157.505 22.8849 157.635 23.4555 157.895 23.9466C158.155 24.4377 158.524 24.8205 159 25.0949C159.477 25.3549 160.026 25.4849 160.647 25.4849C161.182 25.4849 161.673 25.391 162.12 25.2032C162.583 25.0155 162.973 24.741 163.29 24.3799L164.807 25.9182C164.302 26.5105 163.688 26.9582 162.965 27.2616C162.243 27.5649 161.478 27.7166 160.669 27.7166Z" fill="#262626"/>
<path d="M167.411 27.4999V17.0999H169.794V27.4999H167.411ZM169.794 21.7149L168.971 21.3032C168.971 19.9888 169.26 18.9271 169.838 18.1182C170.43 17.2949 171.318 16.8832 172.503 16.8832C173.023 16.8832 173.492 16.9771 173.911 17.1649C174.33 17.3527 174.72 17.656 175.081 18.0749L173.521 19.6782C173.333 19.476 173.124 19.3316 172.893 19.2449C172.662 19.1582 172.394 19.1149 172.091 19.1149C171.427 19.1149 170.878 19.3243 170.444 19.7432C170.011 20.1621 169.794 20.8193 169.794 21.7149Z" fill="#262626"/>
<path d="M179.403 27.7166C178.825 27.7166 178.269 27.6443 177.735 27.4999C177.2 27.341 176.709 27.1243 176.262 26.8499C175.814 26.561 175.424 26.2143 175.092 25.8099L176.608 24.2932C176.969 24.7121 177.381 25.0299 177.843 25.2466C178.32 25.4488 178.854 25.5499 179.447 25.5499C179.981 25.5499 180.385 25.4705 180.66 25.3116C180.934 25.1527 181.072 24.9216 181.072 24.6182C181.072 24.3005 180.941 24.0549 180.682 23.8816C180.422 23.7082 180.082 23.5638 179.663 23.4482C179.259 23.3182 178.825 23.1882 178.363 23.0582C177.915 22.9282 177.482 22.7549 177.063 22.5382C176.659 22.3071 176.327 21.9966 176.067 21.6066C175.807 21.2166 175.676 20.711 175.676 20.0899C175.676 19.4255 175.828 18.8549 176.132 18.3782C176.449 17.9016 176.89 17.5332 177.453 17.2732C178.031 17.0132 178.717 16.8832 179.512 16.8832C180.349 16.8832 181.086 17.0349 181.721 17.3382C182.372 17.6271 182.913 18.0677 183.346 18.6599L181.83 20.1766C181.527 19.801 181.18 19.5193 180.79 19.3316C180.4 19.1438 179.952 19.0499 179.447 19.0499C178.97 19.0499 178.602 19.1221 178.342 19.2666C178.081 19.411 177.952 19.6205 177.952 19.8949C177.952 20.1838 178.081 20.4077 178.342 20.5666C178.602 20.7255 178.934 20.8627 179.338 20.9782C179.757 21.0938 180.19 21.2238 180.638 21.3682C181.1 21.4982 181.534 21.686 181.938 21.9316C182.357 22.1627 182.697 22.4805 182.957 22.8849C183.217 23.2749 183.346 23.7877 183.346 24.4232C183.346 25.4343 182.993 26.236 182.285 26.8282C181.577 27.4205 180.617 27.7166 179.403 27.7166Z" fill="#262626"/>
</svg>
