<svg width="29" height="39" viewBox="0 0 29 39" fill="none" xmlns="http://www.w3.org/2000/svg">
<path d="M15.0074 1.29422C16.3495 1.34215 17.6915 1.5818 19.0336 2.01318C20.9097 2.54283 22.581 3.62918 23.8267 5.1287C24.7374 6.32698 25.3126 7.76491 25.5043 9.25078C25.763 10.852 25.7953 12.4816 25.6002 14.0918L25.3605 15.7215L25.1688 16.6801C25.1209 16.776 25.1209 16.776 25.025 16.776C24.9291 16.5842 24.9291 16.3925 24.9291 16.2008C24.8812 15.4818 24.9771 14.8108 25.025 14.0918C25.0729 12.9415 25.1688 11.7911 25.0729 10.6408L24.7854 8.48388C24.4498 7.14181 23.8267 5.8956 22.8681 4.88905C22.0053 4.02629 20.9509 3.30732 19.8484 2.82801C18.794 2.39663 17.7395 2.10904 16.6371 1.91732C15.7743 1.77353 14.9115 1.7256 14.0488 1.7256C11.9219 1.69076 9.81779 2.16748 7.91361 3.1156C7.2905 3.54698 6.71533 4.07422 6.23602 4.64939C4.76115 6.58542 3.84895 8.89079 3.59981 11.3118C3.55188 12.4622 3.59981 13.5646 3.98326 14.667L4.31877 15.386L4.89395 15.4339L4.94188 15.5777C4.79809 15.6735 4.60636 15.6735 4.41464 15.7215C3.93533 15.8173 3.45601 16.0091 3.02463 16.2966C2.68912 16.5363 2.3536 16.8239 2.16187 17.2073C1.92222 17.6867 2.01808 18.2618 2.11394 18.7891C2.3536 19.6998 2.92877 20.5625 3.69567 21.1377C4.22291 21.5691 4.89395 21.8087 5.56498 21.9046C6.04429 22.0005 6.5236 21.9046 7.00292 21.8567C7.24257 22.0484 7.38636 22.4318 7.53016 22.6715L8.39292 23.9656C9.17268 25.0739 10.2784 25.9115 11.5564 26.3622C12.6109 26.7936 13.7133 27.0332 14.8157 27.2729L16.7809 27.6563L17.5957 27.896V28.0877H17.0205C15.9431 28.0276 14.8705 27.8995 13.8091 27.7042C12.3837 27.4206 11.0203 26.885 9.78292 26.1225C9.25568 25.787 8.77637 25.3556 8.39292 24.8284C8.7249 26.8262 8.45805 28.8775 7.62602 30.7239C6.90705 32.018 5.70878 33.0246 4.27084 33.456C4.12705 33.5039 3.93533 33.5518 3.79153 33.5039C3.69567 33.5039 3.69567 33.456 3.69567 33.3601C3.7436 33.2163 3.88739 33.1205 3.98326 33.0725C4.55843 32.6891 5.22947 32.4015 5.80464 31.9701C6.42774 31.4429 6.95498 30.8677 7.2905 30.1487C7.57809 29.4298 7.76981 28.6149 7.86568 27.8001C7.96154 27.177 8.00947 26.5539 7.96154 25.8829L7.76981 24.0615L6.90705 22.336L5.99636 22.5277C5.29277 22.5482 4.59525 22.3922 3.96736 22.0741C3.33946 21.756 2.80117 21.2857 2.40153 20.7063C1.77673 19.9148 1.43879 18.9347 1.44291 17.9263C1.44291 17.4949 1.5867 17.0635 1.82636 16.728C2.06601 16.3925 2.40153 16.1049 2.73705 15.9132C2.9767 15.7215 3.31222 15.6256 3.59981 15.5298L3.16843 14.3794C2.92877 13.3249 2.92877 12.2225 3.07257 11.168C3.38644 8.55057 4.43317 6.07497 6.09223 4.02629C6.5236 3.54698 6.95498 3.1156 7.48223 2.78008C7.81774 2.58836 8.15326 2.54042 8.44085 2.3487C10.5019 1.43801 12.7546 1.15042 15.0074 1.29422Z" fill="#262626"/>
<path d="M14.0481 1.7243C16.0396 1.65021 18.0222 2.02707 19.8477 2.82671C20.9501 3.30602 22.0046 4.02499 22.8674 4.88775C23.826 5.8943 24.4491 7.14051 24.7846 8.48258L25.0722 10.6395C25.1681 11.7898 25.0722 12.9402 25.0243 14.0905C24.9764 14.8095 24.8805 15.4805 24.9284 16.1995C24.9284 16.3912 24.9284 16.5829 25.0243 16.7747L24.9764 17.7333C24.8805 17.9729 24.8805 18.2126 24.8805 18.5002C24.7846 19.6505 24.7846 20.8488 24.5929 22.0471C24.545 22.6223 24.4491 23.2454 24.2095 23.7726C24.0657 24.204 23.826 24.5874 23.4905 24.9229C22.9153 25.546 22.1964 26.0733 21.4295 26.5047C20.5188 27.0319 19.5601 27.2716 18.6494 27.655C18.4098 27.7509 18.1701 27.8467 18.0263 28.0385C18.4098 28.0864 18.7453 28.0385 19.1288 27.9426C18.8891 28.5178 18.8412 29.0929 18.8412 29.6681C18.8412 29.9078 18.7932 30.1954 18.8891 30.435C19.0329 30.6747 19.2726 30.8664 19.5122 31.0102L21.1898 31.6333C22.2443 32.0167 23.2508 32.4961 24.3053 32.9274C24.4012 33.1192 24.545 33.263 24.5929 33.5026C24.8805 34.0299 24.9284 34.605 24.7367 35.1802C24.497 35.8033 24.0177 36.3305 23.4426 36.6661C22.6757 37.1933 21.717 37.5768 20.8063 37.8164C17.0795 38.6127 13.2154 38.4976 9.54254 37.4809C8.58392 37.1454 7.6253 36.8099 6.76254 36.3305C6.0915 35.9471 5.37254 35.4678 4.8453 34.8447C4.55771 34.4612 4.31805 33.934 4.27012 33.4547C5.39247 33.1121 6.3858 32.4398 7.12094 31.5251C7.85608 30.6105 8.29903 29.4958 8.3922 28.326C8.58392 27.1757 8.58392 25.9774 8.3922 24.8271C8.77564 25.3543 9.25496 25.7857 9.7822 26.1212L11.0763 26.7923C12.9555 27.6029 14.9737 28.0424 17.0198 28.0864H17.595V27.8947L16.7801 27.655L14.815 27.2716C13.7125 27.0319 12.6101 26.7923 11.5556 26.3609C10.9325 26.0733 10.2615 25.7378 9.68634 25.3543C9.20702 24.9229 8.77564 24.4916 8.3922 23.9643L7.52944 22.6702C7.38564 22.4305 7.24185 22.0471 7.00219 21.8554C6.52288 21.9033 6.04357 21.9991 5.56426 21.9033C4.89323 21.8074 4.22219 21.5678 3.69495 21.1364C2.92901 20.5438 2.37437 19.7203 2.11322 18.7878C2.01736 18.2605 1.9215 17.6853 2.16115 17.206C2.35288 16.8226 2.6884 16.535 3.02391 16.2953C3.45529 16.0078 3.9346 15.816 4.41392 15.7202C4.60564 15.6722 4.79736 15.6722 4.94116 15.5764L4.89323 15.4326L4.31805 15.3847L3.98254 14.6657C3.59909 13.5633 3.55116 12.4609 3.64702 11.3105C3.88213 8.89429 4.77757 6.58935 6.2353 4.64809C6.71461 4.07292 7.28978 3.54568 7.91289 3.1143C9.81292 2.14959 11.9172 1.65639 14.0481 1.67636V1.7243Z" fill="#FFDECC"/>
<path d="M3.74414 17.4505C3.93586 17.4505 4.07966 17.4505 4.27138 17.5464C4.51104 17.5943 4.79862 17.7381 4.94242 17.9298C5.03828 18.0736 5.03828 18.2653 4.94242 18.4091C4.70276 18.6967 4.36724 18.8884 4.17552 19.176C4.46311 19.3678 4.84656 19.4636 5.18207 19.6074C5.3738 19.6553 5.56552 19.7512 5.70932 19.895L5.75725 20.0388L5.3738 19.9429L4.22345 19.6074C4.03173 19.5595 3.84 19.4636 3.79207 19.2719C3.74414 19.1281 3.84 18.9364 3.93586 18.7926L4.65483 18.1695C4.46311 17.834 3.93586 17.786 3.74414 17.4505ZM24.9776 17.7381L25.0735 17.8819L25.1693 18.6488C25.2688 20.0707 25.2367 21.4987 25.0735 22.9147C24.9776 23.4419 24.8338 24.0171 24.5942 24.4964C23.3225 26.1603 21.5361 27.3568 19.5135 27.8995C19.4655 28.5705 19.3697 29.3854 19.4176 30.1523L19.6573 30.3919C20.0407 30.6795 20.52 30.8233 20.9514 30.9671C22.0726 31.325 23.1626 31.7738 24.2107 32.3092C24.5462 32.5009 24.8338 32.7405 25.0735 33.0281C24.8338 33.0761 24.5942 32.9802 24.3066 32.9323C23.2521 32.5009 22.2455 32.0216 21.1911 31.6381L19.5135 31.015C19.2738 30.8712 19.0342 30.6795 18.8904 30.4398C18.7945 30.2002 18.8424 29.9126 18.8424 29.6729C18.8424 29.0978 18.8904 28.5226 19.13 27.9474C18.7466 28.0433 18.4111 28.0912 18.0276 28.0433C18.1714 27.8516 18.4111 27.7557 18.6507 27.6598C19.5614 27.2764 20.52 27.0367 21.4307 26.5095C22.1976 26.0781 22.9166 25.5509 23.4918 24.9278C23.8273 24.5922 24.0669 24.2088 24.2107 23.7774C24.4504 23.2502 24.5462 22.6271 24.5942 22.0519C24.7859 20.8536 24.7859 19.6553 24.8818 18.505C24.8818 18.2174 24.8818 17.9778 24.9776 17.7381Z" fill="#262626"/>
<path d="M24.4979 14.5208L24.402 14.8563C24.2582 15.096 24.1144 15.2877 23.8748 15.4315C23.6351 15.5753 23.3475 15.6232 23.06 15.6712L22.1972 15.767C21.9575 15.767 21.8137 15.9108 21.7179 16.0546L21.3824 16.3901C21.2865 16.4381 21.1427 16.3422 21.1906 16.2463C21.2386 15.8629 21.5262 15.5753 21.7179 15.2877C21.8617 15.1439 22.0534 14.9522 22.2931 14.9522L23.731 14.7126C23.9706 14.6646 24.2103 14.5208 24.4979 14.5208ZM9.87891 14.7126C10.4541 14.6646 10.8855 14.8563 11.4127 14.9043C12.1317 15.0001 12.8506 15.096 13.5696 15.096L14.7199 15.1919C15.1034 15.2398 15.5348 15.1919 15.8703 15.3836C16.2058 15.5753 16.4455 15.8629 16.6372 16.1505C16.6851 16.2463 16.7331 16.3422 16.6372 16.486C16.5893 16.5339 16.4934 16.486 16.4455 16.4381C16.2537 16.3422 16.1099 16.1505 15.9182 16.1026L15.3431 16.0546L14.001 16.0067L12.9465 15.9588C12.4672 15.9108 11.9879 15.9108 11.5086 15.7191C11.173 15.6232 10.9334 15.4315 10.5979 15.2877L10.0227 14.8563C9.92684 14.8084 9.87891 14.8084 9.87891 14.7126Z" fill="#262626"/>
<path d="M15.3902 8.96239C15.7257 8.96239 16.0612 9.05825 16.3009 9.24997C16.4926 9.34584 16.6364 9.4417 16.6843 9.63342C16.7323 9.72929 16.6843 9.87308 16.5885 9.92101C16.3488 9.96894 16.1092 9.82515 15.9174 9.77722L15.4861 9.72929C14.863 9.68135 14.2398 9.77722 13.6167 9.92101C12.5679 10.2178 11.5898 10.7231 10.7409 11.4069C10.5492 11.5027 10.3095 11.6465 10.0698 11.5986C9.92605 11.5986 9.92605 11.4069 9.97398 11.2631C10.0219 10.9755 10.3095 10.7358 10.5492 10.4962C11.0285 10.0648 11.6516 9.77722 12.2267 9.53756C13.1854 9.10618 14.3357 8.86653 15.3902 8.96239ZM22.8674 9.05825C23.203 8.96239 23.5385 9.01032 23.8261 9.20204C24.0178 9.34584 24.2095 9.48963 24.2574 9.72929C24.3054 9.87308 24.3054 10.0169 24.1616 10.0648C24.0178 10.1127 23.8261 10.1127 23.6823 10.0169C23.4426 9.87308 23.2509 9.72929 22.9633 9.72929C22.7237 9.72929 22.484 9.77722 22.2923 9.87308C21.9088 10.0648 21.5254 10.4003 21.3336 10.7838L21.0461 11.2151H20.9023V10.9276C20.9981 10.5441 21.2378 10.1607 21.5254 9.87308C21.8609 9.48963 22.3402 9.15411 22.8674 9.05825Z" fill="#262626"/>
<path d="M1.63453 17.354C1.87418 17.354 2.11384 17.3061 2.30556 17.4499C2.44936 17.5458 2.54522 17.6895 2.49729 17.8813C2.40142 18.073 2.2097 18.2168 1.97005 18.2168H1.20315C0.963492 18.1689 0.771768 18.073 0.675906 17.8813C0.627975 17.6895 0.771768 17.5458 0.915561 17.4499C1.15522 17.354 1.39487 17.402 1.63453 17.354ZM2.25763 18.4564C2.40142 18.5044 2.59315 18.6002 2.59315 18.792C2.59315 18.9358 2.54522 19.0795 2.40142 19.1275C2.16177 19.3192 1.87418 19.3192 1.5866 19.4151C1.34694 19.463 1.10729 19.5109 0.915561 19.3671C0.723837 19.2233 0.771768 18.9358 0.915561 18.792C1.10729 18.6002 1.29901 18.6002 1.53867 18.5523C1.77832 18.5044 2.01798 18.4085 2.25763 18.4564ZM5.70867 20.9489H6.09212C6.23591 20.9968 6.37971 21.1406 6.37971 21.3323C6.37971 21.572 6.18798 21.7637 5.94833 21.8116C5.70867 21.9075 5.51695 21.7158 5.42108 21.524C5.37315 21.2844 5.46901 20.9968 5.70867 20.9489Z" fill="#262626"/>
<path d="M20.3754 19.1237C20.3754 19.2675 20.2796 19.4113 20.1837 19.5551C19.992 19.8427 19.6565 20.0344 19.321 20.1303C19.0813 20.1782 18.8896 20.0344 18.6979 20.1303C18.5061 20.1303 18.3144 20.1782 18.1227 20.0823C18.0268 20.0344 18.0268 19.8906 18.1227 19.7947C18.2665 19.603 18.5061 19.4592 18.6979 19.4592C18.8896 19.4113 19.0334 19.4113 19.1772 19.5551L19.2251 19.8906C19.4647 19.7947 19.5606 19.6509 19.7523 19.5072L20.3754 19.1237Z" fill="#262626"/>
<path d="M25.7431 18.1218C26.1745 18.1218 26.558 18.3135 26.7976 18.649C26.9096 18.7962 26.9911 18.9643 27.0374 19.1434C27.0836 19.3225 27.0936 19.509 27.0668 19.6921C27.04 19.8751 26.977 20.0509 26.8814 20.2093C26.7858 20.3676 26.6595 20.5053 26.51 20.6142C26.8935 20.7101 27.2769 20.9497 27.5645 21.2373C27.9959 21.7645 28.3314 22.4835 28.2835 23.2025C28.2355 23.5859 28.0917 23.9214 27.9 24.209C27.5166 24.8321 26.8935 25.2635 26.2224 25.5511L26.6059 25.9825C26.7497 26.318 26.7976 26.6535 26.7976 27.037C26.7497 27.6121 26.51 28.1873 26.0786 28.6187C25.5836 29.0921 24.9402 29.3799 24.2573 29.4335C23.778 29.4815 23.2507 29.4815 22.7714 29.3377C22.7235 29.6732 22.6276 30.0566 22.4838 30.3921C22.1609 30.9617 21.6472 31.399 21.0334 31.627C20.4197 31.855 19.7451 31.859 19.1286 31.6384C18.5535 31.3987 18.0742 30.9673 17.7866 30.488C17.0676 30.9194 16.3007 31.0632 15.4859 31.0632C14.8148 31.1111 14 31.0632 13.4248 30.7277C13.0414 30.5839 12.8017 30.2963 12.5621 30.0087C12.4183 29.8649 12.3224 29.7211 12.2745 29.4815C11.7472 29.9128 11.0283 30.0087 10.4052 29.9128C9.92586 29.769 9.49448 29.5294 9.25483 29.098C9.01517 28.8104 8.96724 28.379 8.96724 27.9956H8.29621C7.91276 27.9477 7.52931 27.7559 7.19379 27.5163C6.66655 27.037 6.23517 26.4139 5.94758 25.7428C5.85172 25.4552 5.75586 25.1677 5.75586 24.8321C5.75586 24.3049 5.94758 23.7777 6.2831 23.3463C6.13931 23.0108 6.09138 22.6752 6.18724 22.3397C6.33103 21.7645 6.76241 21.2852 7.24172 20.9977C7.6731 20.7101 8.20035 20.6142 8.72759 20.6621C8.82345 20.3745 8.96724 20.1828 9.2069 19.9911C9.73414 19.5118 10.4052 19.2242 11.1241 19.2242C11.6035 19.2242 12.0348 19.2721 12.4183 19.4639C12.61 19.1763 12.8497 19.0325 13.1372 18.9366C13.6645 18.697 14.2397 18.7449 14.7669 18.9845C15.6776 19.3201 16.3966 19.8473 17.2593 20.1828C17.499 20.3745 17.8345 20.3266 18.17 20.3745C18.5055 20.4225 18.841 20.3745 19.1766 20.3266C19.3204 20.2787 19.5121 20.2787 19.6079 20.1828L20.5186 19.7035L21.4773 18.9845C21.8607 18.7449 22.34 18.5052 22.8193 18.5532C23.0111 18.6011 23.1548 18.697 23.2507 18.8408C23.9906 18.3566 24.859 18.1061 25.7431 18.1218Z" fill="#262626"/>
<path d="M14.1933 22.5735C14.3371 22.5256 14.433 22.5735 14.433 22.6694C14.433 22.8131 14.2892 22.9569 14.1454 23.0049C14.0016 22.8611 14.0496 22.6694 14.1933 22.5735ZM15.3916 23.1487L17.1171 23.4842L18.5551 23.58C18.8906 23.628 19.1782 23.58 19.4658 23.6759C19.4178 23.7718 19.322 23.8197 19.1782 23.8676C17.9898 24.0548 16.774 23.9563 15.6313 23.58C15.4875 23.5321 15.2958 23.4363 15.2478 23.2925C15.1999 23.1966 15.2958 23.1007 15.3916 23.1487Z" fill="#FFDECC"/>
<path d="M13.9533 0.671927C15.3067 0.674619 16.6562 0.819202 17.9795 1.10331C18.5067 1.2471 18.986 1.34296 19.4653 1.53469L21.1429 2.15779C21.6222 2.30158 22.0536 2.58917 22.5329 2.7809L23.2998 3.06848L24.6898 3.35607C24.9295 3.45193 25.1212 3.59572 25.2171 3.83538C25.3609 4.12297 25.3129 4.41055 25.2171 4.69814L25.6964 4.93779C25.936 5.17745 26.0319 5.51297 25.936 5.84849C25.8402 6.04021 25.6484 6.184 25.4567 6.27987C24.4368 6.80293 23.262 6.93914 22.1495 6.66331L20.0405 6.184L17.0688 5.36917C14.5282 4.49996 11.7629 4.55085 9.25601 5.51297L9.06429 6.184C8.87256 6.9509 8.72877 7.7178 8.68084 8.4847V9.29952L8.63291 9.68297C8.48912 10.0185 8.20153 10.354 8.0098 10.6895C7.43463 11.5523 6.90739 12.463 6.47601 13.3737L6.38015 14.0447V15.914C6.38015 16.1537 6.47601 16.3454 6.33222 16.5371C5.61325 16.4413 4.89428 16.2495 4.12739 16.0578C4.03152 16.0578 3.88773 16.0578 3.79187 15.9619L3.45635 15.5306C3.26463 15.3868 3.2167 15.0992 3.12083 14.8595C2.78532 13.853 2.68945 12.7026 2.68945 11.6002C2.68945 10.2581 2.92911 8.96401 3.16876 7.66987C3.36049 6.9509 3.64808 6.27987 3.98359 5.65676C4.4629 4.69814 5.13394 3.88331 5.90084 3.16434C6.66773 2.39745 7.57842 1.8702 8.58498 1.48676C10.3058 0.874396 12.1282 0.597789 13.9533 0.671927ZM5.08601 16.5371C5.56532 16.5371 6.04463 16.6809 6.47601 16.7768C6.66773 16.8247 6.90739 16.9206 7.05118 17.0644C7.19498 17.1602 7.14705 17.3519 7.00325 17.3999C6.57187 17.5437 6.23635 17.3999 5.85291 17.304C5.56532 17.2082 5.18187 17.1123 4.89428 16.9206C4.79842 16.8726 4.65463 16.7288 4.75049 16.633C4.84635 16.5371 4.99015 16.5371 5.08601 16.5371ZM26.0319 22.1451C26.0798 22.2409 26.0798 22.2889 25.984 22.3847L26.0319 22.1451Z" fill="#262626"/>
</svg>
