<svg width="24" height="24" viewBox="0 0 24 24" fill="none" xmlns="http://www.w3.org/2000/svg">
<path d="M12.004 17.9766C16.6595 17.9766 19.9725 16.1731 19.9725 13.5264V9.62265C19.9725 7.28042 17.1541 6 12.004 6C6.84596 6 4.02748 7.28042 4.02748 9.62265V13.5264C4.02748 16.1731 7.34051 17.9766 12.004 17.9766ZM7.74877 10.3097C7.74877 9.95837 8.03926 9.66168 8.40042 9.66168H15.6075C15.9765 9.66168 16.2669 9.95837 16.2669 10.3097C16.2669 10.6688 15.9765 10.9655 15.6075 10.9655H8.40042C8.03926 10.9655 7.74877 10.6688 7.74877 10.3097ZM7.74877 13.3234C7.74877 12.9642 8.03926 12.6675 8.40042 12.6675H15.6075C15.9765 12.6675 16.2669 12.9642 16.2669 13.3234C16.2669 13.6825 15.9765 13.9714 15.6075 13.9714H8.40042C8.03926 13.9714 7.74877 13.6825 7.74877 13.3234ZM0 11.1295C0 13.6435 1.8371 15.4002 4.59274 15.4002H5.10305V14.1432H4.46713C2.55937 14.1432 1.26399 12.8783 1.26399 11.1295C1.26399 10.2629 1.72718 9.73195 2.56722 9.73195H4.78116V8.47495H2.56722C0.942101 8.47495 0 9.4743 0 11.1295ZM24 11.1295C24 9.4743 23.0658 8.47495 21.4328 8.47495H19.2189V9.73195H21.4328C22.2728 9.73195 22.736 10.2629 22.736 11.1295C22.736 12.8783 21.4406 14.1432 19.5329 14.1432H18.8969V15.4002H19.4151C22.1629 15.4002 24 13.6435 24 11.1295Z" fill="#262626"/>
</svg>
