<svg width="24" height="20" viewBox="0 0 24 20" fill="none" xmlns="http://www.w3.org/2000/svg">
<path d="M11.6998 0.805289C11.8912 0.721642 12.1089 0.721642 12.3003 0.805289C16.0192 2.43011 19.5437 4.41637 22.8295 6.71956C23.0673 6.88623 23.1875 7.1752 23.1381 7.46135C23.0887 7.7475 22.8785 7.97941 22.5986 8.05667C21.9137 8.24573 21.2347 8.44935 20.5618 8.66635C17.8307 9.54714 15.2018 10.6554 12.6972 11.9688L12.6939 11.9705C12.5803 12.0301 12.467 12.09 12.354 12.1504C12.1331 12.2684 11.8679 12.2684 11.6471 12.1504C11.533 12.0895 11.4186 12.0289 11.3039 11.9688C10.0655 11.3193 8.79658 10.7201 7.5 10.1736V9.94995C7.5 9.8186 7.56742 9.70205 7.67173 9.63885C9.17685 8.727 10.7294 7.88565 12.3247 7.11936C12.6981 6.94002 12.8554 6.49195 12.6761 6.11858C12.4967 5.7452 12.0486 5.58791 11.6753 5.76725C10.036 6.55463 8.44086 7.41909 6.89449 8.35592C6.44111 8.63059 6.13632 9.08014 6.03607 9.58377C5.18115 9.25491 4.31499 8.9486 3.43829 8.66588C2.76546 8.44889 2.08644 8.24571 1.40154 8.05666C1.12162 7.9794 0.911461 7.74749 0.86204 7.46134C0.812619 7.17519 0.932824 6.88622 1.17061 6.71955C4.45645 4.41636 7.98097 2.43011 11.6998 0.805289Z" fill="#262626"/>
<path d="M13.0609 13.4734C15.4997 12.1703 18.0621 11.0687 20.7258 10.1906C20.8601 11.6054 20.9458 13.0343 20.9813 14.4755C20.9889 14.7847 20.8059 15.0669 20.5205 15.1861C17.6693 16.3764 14.9574 17.834 12.4159 19.5277C12.1641 19.6955 11.836 19.6955 11.5841 19.5277C9.04267 17.834 6.33073 16.3764 3.4796 15.1861C3.19416 15.0669 3.01116 14.7847 3.01878 14.4755C3.05429 13.0342 3.14001 11.6052 3.27427 10.1903C4.19527 10.4938 5.10415 10.8242 6 11.1803V12.4507C5.55165 12.71 5.25 13.1948 5.25 13.75C5.25 14.2453 5.49008 14.6846 5.86022 14.9577C5.7707 15.3383 5.63822 15.7108 5.46277 16.0675C5.91546 16.2811 6.36428 16.5017 6.8091 16.7289C7.06243 16.2137 7.24612 15.6729 7.36014 15.1207C7.88449 14.887 8.25 14.3612 8.25 13.75C8.25 13.1948 7.94835 12.71 7.5 12.4507V11.8059C8.6714 12.3177 9.81885 12.8743 10.9402 13.4734C11.6028 13.8274 12.3983 13.8274 13.0609 13.4734Z" fill="#262626"/>
<path d="M4.46222 17.4623C4.88136 17.0432 5.21502 16.5711 5.46277 16.0675C5.91546 16.2811 6.36428 16.5017 6.8091 16.7289C6.49055 17.3768 6.06164 17.9842 5.52288 18.523C5.22999 18.8158 4.75512 18.8158 4.46222 18.523C4.16933 18.2301 4.16933 17.7552 4.46222 17.4623Z" fill="#262626"/>
</svg>
